<?xml version="1.0" encoding="UTF-8"?>
<svg version="1.1" xmlns="http://www.w3.org/2000/svg" width="512" height="512">
<path d="M0 0 C2.62753941 0.9734047 5.18423276 2.07725384 7.75048828 3.20043945 C16.21495725 6.89323886 23.19084765 7.14309314 32.01855469 4.42285156 C33.85809913 3.56098594 35.69111908 2.68510306 37.51855469 1.79785156 C46.40971392 -2.02568932 57.00970731 -2.51437019 66.19042969 0.74316406 C68.74494633 1.7613737 71.24795158 2.87898851 73.75292969 4.01269531 C81.30920708 7.27563328 88.23795435 6.80630498 96.01855469 4.42285156 C97.9434676 3.56614484 99.85985582 2.69009858 101.76855469 1.79785156 C108.72418532 -1.22164701 116.81779083 -2.62030567 124.09667969 0.23925781 C129.68893027 4.2922273 131.88195147 11.9298424 133.01855469 18.42285156 C133.96969489 31.53940297 133.58375486 44.00721371 129.01855469 56.42285156 C128.59445312 57.59976563 128.17035156 58.77667969 127.73339844 59.98925781 C123.97434422 69.52825055 118.64520455 79.37727979 111.01855469 86.42285156 C112.31792969 86.46410156 113.61730469 86.50535156 114.95605469 86.54785156 C122.1128463 87.36061023 126.98880948 91.04656449 131.58105469 96.42285156 C134.24007836 101.98824995 133.90123392 108.46645127 133.01855469 114.42285156 C131.04834366 119.35186008 128.10328533 123.03171583 123.64355469 125.92285156 C119.58019017 127.60424378 116.36736113 127.95465708 112.01855469 128.42285156 C112.72874756 129.1225708 113.43894043 129.82229004 114.1706543 130.54321289 C116.85421444 133.19002961 119.53070369 135.84390654 122.20532227 138.49975586 C123.35450551 139.63900334 124.50549135 140.77643597 125.65844727 141.91186523 C132.94347561 149.0890612 139.69574151 156.37055587 146.01855469 164.42285156 C147.04301671 165.67781369 148.07002273 166.93070732 149.10058594 168.18066406 C165.09573765 187.82277901 178.42321468 208.91425037 190.01855469 231.42285156 C190.56680908 231.25156738 191.11506348 231.0802832 191.67993164 230.90380859 C194.22829245 230.11184083 196.77961263 229.32983309 199.33105469 228.54785156 C200.19279297 228.2784375 201.05453125 228.00902344 201.94238281 227.73144531 C213.52554751 224.20051778 224.40763611 223.0126578 236.51855469 223.04785156 C237.22343018 223.04839539 237.92830566 223.04893921 238.65454102 223.04949951 C250.1610985 223.09023588 260.98896188 223.97197201 272.01855469 227.42285156 C272.70224121 227.63184082 273.38592773 227.84083008 274.09033203 228.05615234 C303.25167511 237.26173121 329.16035188 258.36122998 343.3762207 285.51513672 C345.01031184 288.78018179 346.53567811 292.08681694 348.01855469 295.42285156 C348.74171875 297.02193359 348.74171875 297.02193359 349.47949219 298.65332031 C361.29516425 326.90351806 360.27200823 360.40006365 349.33105469 388.67285156 C343.41628428 403.0578499 335.48520439 414.97686622 325.01855469 426.42285156 C324.30183594 427.22207031 323.58511719 428.02128906 322.84667969 428.84472656 C312.16224345 440.17183566 299.14610171 448.14311799 285.01855469 454.42285156 C283.41947266 455.14601563 283.41947266 455.14601563 281.78808594 455.88378906 C253.53788819 467.69946112 220.0413426 466.6763051 191.76855469 455.73535156 C175.13532688 448.89616248 151.09744673 435.91972152 143.39898682 418.82695007 C141.37746755 416.02400686 140.30616473 415.47990596 136.8658371 414.79743385 C132.53868736 414.58527574 128.26092608 414.60294229 123.93164062 414.69165039 C122.26393905 414.70017636 120.59621885 414.70555435 118.92849731 414.70802307 C115.3371147 414.71998293 111.7468534 414.75398593 108.15581512 414.80500221 C102.46313368 414.8854907 96.77086021 414.91552009 91.07769775 414.93864441 C81.02924857 414.98590797 70.98152154 415.07596836 60.93347168 415.175354 C45.85202355 415.32413916 30.77036504 415.43862675 15.68837571 415.51451319 C10.04526881 415.54448703 4.40292226 415.59617079 -1.23982859 415.66586077 C-4.77618195 415.70568372 -8.31251181 415.72845812 -11.84903336 415.74722862 C-13.47065064 415.75935484 -15.09223595 415.77839712 -16.71367264 415.8054657 C-30.7469747 416.03380854 -44.98742924 414.48419648 -57.48144531 407.54785156 C-58.47192871 407.02251831 -58.47192871 407.02251831 -59.48242188 406.48657227 C-61.33155496 405.49121789 -63.1592918 404.46659388 -64.98144531 403.42285156 C-65.83222656 402.93945312 -66.68300781 402.45605469 -67.55957031 401.95800781 C-88.38363127 389.03660308 -100.98823616 367.63245346 -106.50976562 344.17871094 C-109.7780459 325.08329287 -107.35045733 303.06564225 -102.98144531 284.42285156 C-102.74538574 283.41351563 -102.50932617 282.40417969 -102.26611328 281.36425781 C-87.62859392 220.88893604 -49.47810033 171.32456753 -5.98144531 128.42285156 C-6.62210937 128.33648437 -7.26277344 128.25011719 -7.92285156 128.16113281 C-15.80024951 126.88149589 -20.32309748 124.62650152 -25.41894531 118.48535156 C-28.21513339 112.90518584 -27.87390881 106.44527699 -26.98144531 100.42285156 C-25.02381406 95.52531471 -22.07961495 91.82894698 -17.66894531 88.92285156 C-13.38524772 87.18033051 -9.56967965 86.63093475 -4.98144531 86.42285156 C-5.39394531 86.00777344 -5.80644531 85.59269531 -6.23144531 85.16503906 C-20.11967379 70.34679528 -27.12852495 50.36732228 -27.23144531 30.29785156 C-27.25207031 29.31558594 -27.27269531 28.33332031 -27.29394531 27.32128906 C-27.34465715 17.68604041 -26.17309239 8.88623192 -19.38378906 1.66503906 C-14.62406489 -2.55109544 -5.81029606 -1.69240265 0 0 Z " fill="#81C784" transform="translate(130.9814453125,24.5771484375)"/>
<path d="M0 0 C0.69488525 0.00304138 1.38977051 0.00608276 2.10571289 0.00921631 C13.5222114 0.08280151 24.3090782 1.01436335 35.25 4.4375 C35.93368652 4.64648926 36.61737305 4.85547852 37.32177734 5.07080078 C66.48312042 14.27637964 92.3917972 35.37587842 106.60766602 62.52978516 C108.24175715 65.79483023 109.76712342 69.10146538 111.25 72.4375 C111.97316406 74.03658203 111.97316406 74.03658203 112.7109375 75.66796875 C124.52660956 103.91816649 123.50345354 137.41471209 112.5625 165.6875 C106.6477296 180.07249834 98.7166497 191.99151466 88.25 203.4375 C87.53328125 204.23671875 86.8165625 205.0359375 86.078125 205.859375 C75.39368876 217.18648409 62.37754702 225.15776642 48.25 231.4375 C47.18394531 231.91960937 46.11789062 232.40171875 45.01953125 232.8984375 C16.76933351 244.71410956 -16.72721209 243.69095354 -45 232.75 C-59.37824114 226.838008 -71.31764636 218.91208997 -82.75 208.4375 C-84.0184375 207.27541016 -84.0184375 207.27541016 -85.3125 206.08984375 C-106.21327855 186.07169943 -118.10373338 155.96695025 -119.75 127.4375 C-119.8005957 126.62297363 -119.85119141 125.80844727 -119.90332031 124.96923828 C-120.98910303 104.74946453 -117.06885862 85.42807429 -107.75 67.4375 C-107.41484375 66.77169922 -107.0796875 66.10589844 -106.734375 65.41992188 C-101.58905218 55.29246744 -95.47582158 46.74317838 -87.75 38.4375 C-86.94820313 37.55449219 -86.14640625 36.67148437 -85.3203125 35.76171875 C-63.16410324 12.40689489 -31.96293596 -0.29923158 0 0 Z " fill="#FEB74D" transform="translate(367.75,247.5625)"/>
<path d="M0 0 C2.62753941 0.9734047 5.18423276 2.07725384 7.75048828 3.20043945 C16.21495725 6.89323886 23.19084765 7.14309314 32.01855469 4.42285156 C33.85809913 3.56098594 35.69111908 2.68510306 37.51855469 1.79785156 C46.40971392 -2.02568932 57.00970731 -2.51437019 66.19042969 0.74316406 C68.74494633 1.7613737 71.24795158 2.87898851 73.75292969 4.01269531 C81.30920708 7.27563328 88.23795435 6.80630498 96.01855469 4.42285156 C97.9434676 3.56614484 99.85985582 2.69009858 101.76855469 1.79785156 C108.72418532 -1.22164701 116.81779083 -2.62030567 124.09667969 0.23925781 C129.68893027 4.2922273 131.88195147 11.9298424 133.01855469 18.42285156 C133.96969489 31.53940297 133.58375486 44.00721371 129.01855469 56.42285156 C128.59445312 57.59976563 128.17035156 58.77667969 127.73339844 59.98925781 C123.97434422 69.52825055 118.64520455 79.37727979 111.01855469 86.42285156 C112.31792969 86.46410156 113.61730469 86.50535156 114.95605469 86.54785156 C122.1128463 87.36061023 126.98880948 91.04656449 131.58105469 96.42285156 C134.24007836 101.98824995 133.90123392 108.46645127 133.01855469 114.42285156 C130.77884972 120.02607107 127.55026738 123.61508415 122.25136948 126.56088829 C117.65131772 128.33670762 112.75995757 127.99952749 107.89208984 127.98461914 C106.08344704 128.0025351 106.08344704 128.0025351 104.23826599 128.02081299 C100.94672095 128.04939031 97.65569478 128.06045618 94.36404467 128.06328797 C90.90751162 128.07017076 87.45115349 128.09874847 83.99472046 128.12467957 C78.18952385 128.1651661 72.38441569 128.19103247 66.57910156 128.20678711 C59.1489014 128.22700793 51.71902668 128.27017961 44.28898048 128.32108021 C37.87686333 128.36493655 31.46470076 128.39939373 25.05251646 128.43174529 C23.00355939 128.44233916 20.95460986 128.45396919 18.90565872 128.46564674 C15.0717044 128.48548148 11.2377995 128.4979669 7.40380859 128.50805664 C5.71557732 128.51804939 5.71557732 128.51804939 3.99324036 128.52824402 C-14.84458348 128.55074253 -14.84458348 128.55074253 -22.98144531 121.42285156 C-27.5660203 116.05554426 -27.70774896 110.83148715 -27.49316406 103.87597656 C-26.60151653 97.85905733 -23.91839055 93.92624774 -19.34082031 90.02441406 C-14.88481716 87.08844937 -10.16356895 86.65786851 -4.98144531 86.42285156 C-5.39394531 86.00777344 -5.80644531 85.59269531 -6.23144531 85.16503906 C-20.11967379 70.34679528 -27.12852495 50.36732228 -27.23144531 30.29785156 C-27.25207031 29.31558594 -27.27269531 28.33332031 -27.29394531 27.32128906 C-27.34465715 17.68604041 -26.17309239 8.88623192 -19.38378906 1.66503906 C-14.62406489 -2.55109544 -5.81029606 -1.69240265 0 0 Z " fill="#81C784" transform="translate(130.9814453125,24.5771484375)"/>
<path d="M0 0 C30.89332747 12.5455137 54.44726562 34.51034787 68 65 C68.72316406 66.59908203 68.72316406 66.59908203 69.4609375 68.23046875 C81.27660956 96.48066649 80.25345354 129.97721209 69.3125 158.25 C63.3977296 172.63499834 55.4666497 184.55401466 45 196 C44.28328125 196.79921875 43.5665625 197.5984375 42.828125 198.421875 C32.14368876 209.74898409 19.12754702 217.72026642 5 224 C3.40091797 224.72316406 3.40091797 224.72316406 1.76953125 225.4609375 C-27.42007136 237.66951654 -61.82981244 236.13535022 -90.78173828 224.27539062 C-102.30037055 219.30541085 -113.9889178 212.84146183 -123 204 C-123 203.34 -123 202.68 -123 202 C-120.20760027 202.64279009 -117.41609416 203.28908665 -114.625 203.9375 C-113.8309375 204.11990234 -113.036875 204.30230469 -112.21875 204.49023438 C-111.07792969 204.75610352 -111.07792969 204.75610352 -109.9140625 205.02734375 C-109.2123291 205.18968506 -108.5105957 205.35202637 -107.78759766 205.51928711 C-106 206 -106 206 -104 207 C-95.10359171 208.27091547 -86.19391334 208.1882666 -77.22705078 208.03710938 C-75.35857514 208.00597494 -73.48980879 207.99301646 -71.62109375 207.984375 C-47.67708969 207.11027837 -22.18448022 195.20330615 -4.6875 179.125 C-2.19357284 176.83497883 -0.22256249 175.53471059 3 174.5 C9.54546093 172.38689844 15.06965531 167.22475939 18.21484375 161.125 C19.61215462 157.34322332 20.26975252 153.37563666 21.09765625 149.4375 C22.00572876 145.97817613 23.23838977 143.08046083 24.8125 139.875 C27.43599287 134.48408199 29.44237114 129.07792594 31.25 123.375 C31.61895386 122.2300708 31.61895386 122.2300708 31.99536133 121.06201172 C35.0247596 111.26636515 36.37155252 101.74645594 36.3125 91.5 C36.30404053 89.93741455 36.30404053 89.93741455 36.29541016 88.34326172 C35.83894759 58.77262254 25.69052878 31.22466488 6 9 C4.89498809 7.92907336 3.78561861 6.86262415 2.671875 5.80078125 C0 3 0 3 0 0 Z " fill="#FEA726" transform="translate(411,255)"/>
<path d="M0 0 C1.29354401 -0.01022186 2.58708801 -0.02044373 3.91983032 -0.03097534 C7.45308131 -0.05765473 10.98590312 -0.05892415 14.51923513 -0.05384874 C17.47631333 -0.05170221 20.43330595 -0.06149422 23.39036572 -0.07105958 C30.37098661 -0.09321553 37.35139224 -0.09414454 44.33203125 -0.08203125 C51.51627093 -0.06995568 58.69972683 -0.09456974 65.88383281 -0.13717139 C72.06755346 -0.17248266 78.25102551 -0.18439372 84.43484318 -0.1778959 C88.12127777 -0.17428199 91.80715331 -0.17942188 95.49349594 -0.20732498 C99.60815495 -0.23730733 103.72123435 -0.21847494 107.8359375 -0.1953125 C109.04558167 -0.21059998 110.25522583 -0.22588745 111.50152588 -0.24163818 C119.24879981 -0.14543693 124.23064097 1.31355874 130.04736328 6.54931641 C134.63193827 11.91662371 134.77366693 17.14068081 134.55908203 24.09619141 C133.79135248 29.27690072 131.86929246 32.97420457 128.04736328 36.54931641 C121.79909584 41.08611289 116.49780784 41.13428905 108.92089844 41.11108398 C107.11225563 41.12899994 107.11225563 41.12899994 105.26707458 41.14727783 C101.97552954 41.17585515 98.68450337 41.18692103 95.39285326 41.18975282 C91.93632021 41.1966356 88.47996208 41.22521332 85.02352905 41.25114441 C79.21833244 41.29163094 73.41322428 41.31749731 67.60791016 41.33325195 C60.17770999 41.35347278 52.74783527 41.39664445 45.31778908 41.44754505 C38.90567192 41.49140139 32.49350935 41.52585858 26.08132505 41.55821013 C24.03236799 41.56880401 21.98341846 41.58043403 19.93446732 41.59211159 C16.10051299 41.61194632 12.26660809 41.62443174 8.43261719 41.63452148 C6.74438591 41.64451424 6.74438591 41.64451424 5.02204895 41.65470886 C-13.81577488 41.67720737 -13.81577488 41.67720737 -21.95263672 34.54931641 C-26.53721171 29.1820091 -26.67894037 23.957952 -26.46435547 17.00244141 C-25.69662592 11.82173209 -23.7745659 8.12442824 -19.95263672 4.54931641 C-13.54277541 -0.19194785 -7.79731847 -0.03183213 0 0 Z " fill="#FFA726" transform="translate(129.95263671875,111.45068359375)"/>
<path d="M0 0 C5.60859742 4.02019765 7.79901041 11.69821713 8.93359375 18.1796875 C9.88473396 31.29623891 9.49879392 43.76404965 4.93359375 56.1796875 C4.50949219 57.35660156 4.08539063 58.53351563 3.6484375 59.74609375 C0.22611807 68.4305868 -4.32646331 75.85343305 -10.06640625 83.1796875 C-10.54813293 83.88393356 -11.02985962 84.58817963 -11.52618408 85.31376648 C-15.62432841 88.32405973 -19.90101343 87.77776451 -24.85839844 87.77661133 C-26.50785965 87.79917244 -26.50785965 87.79917244 -28.19064331 87.82218933 C-31.83168619 87.86533769 -35.472003 87.87797103 -39.11328125 87.88671875 C-41.64431025 87.90210981 -44.17533649 87.91795984 -46.70635986 87.93424988 C-52.01590276 87.96273398 -57.3251739 87.97424008 -62.63476562 87.97583008 C-68.75885682 87.97826149 -74.88124988 88.02919864 -81.00486255 88.10272199 C-86.90807009 88.17107976 -92.81076732 88.1893985 -98.71439362 88.18933678 C-101.21984238 88.19589733 -103.725298 88.21716814 -106.23049164 88.25351906 C-109.74073366 88.30008827 -113.24646742 88.28944251 -116.75683594 88.26489258 C-118.30324265 88.30400253 -118.30324265 88.30400253 -119.88088989 88.34390259 C-124.26816864 88.26132472 -126.99469446 88.05520407 -130.46164703 85.22293663 C-132.50661531 82.95942205 -134.32212331 80.68021335 -136.06640625 78.1796875 C-136.48406628 77.58454251 -136.9017263 76.98939753 -137.33204269 76.37621784 C-138.30635934 74.89178015 -139.19069338 73.34934771 -140.06640625 71.8046875 C-140.64390625 70.80695313 -141.22140625 69.80921875 -141.81640625 68.78125 C-143.06640625 66.1796875 -143.06640625 66.1796875 -143.06640625 63.1796875 C-141.72122925 63.16755722 -141.72122925 63.16755722 -140.34887695 63.15518188 C-131.87474916 63.07706295 -123.40077651 62.98972059 -114.92684937 62.89216042 C-110.57089387 62.84233188 -106.21496105 62.79600123 -101.85888672 62.7578125 C-97.65070634 62.72078915 -93.44272215 62.67438417 -89.23471069 62.62162399 C-87.63369202 62.60317024 -86.03263144 62.58802943 -84.43154907 62.57634354 C-82.17942449 62.55932547 -79.92774045 62.53025558 -77.67578125 62.49853516 C-75.75717285 62.47854965 -75.75717285 62.47854965 -73.79980469 62.4581604 C-63.83494022 61.7148846 -52.86831893 57.80155677 -46.06640625 50.1796875 C-35.8043735 37.3815002 -32.33009266 21.17185687 -31.06640625 5.1796875 C-21.44777284 0.65327178 -10.65535838 -4.22991543 0 0 Z " fill="#66BB6A" transform="translate(255.06640625,24.8203125)"/>
<path d="M0 0 C0.53367188 0.36351562 1.06734375 0.72703125 1.6171875 1.1015625 C22.47940433 15.17814479 41.30675192 22.123158 66.56591797 22.17700195 C67.92703927 22.18327855 69.2881589 22.18992638 70.64927673 22.19691467 C75.09690183 22.21782534 79.54452673 22.22830881 83.9921875 22.23828125 C85.53338767 22.24233447 87.07458767 22.24645155 88.61578751 22.25063133 C95.86450871 22.26965903 103.11321992 22.28389187 110.36196125 22.2922433 C118.68011615 22.30198944 126.9980031 22.32825019 135.31606376 22.36874419 C141.77675225 22.39909699 148.2373648 22.41373038 154.6981231 22.41702431 C158.54178891 22.41935412 162.38516779 22.42803906 166.22875595 22.45348549 C193.30106648 22.74408701 193.30106648 22.74408701 219 15 C219.66 14.34 220.32 13.68 221 13 C221.4021875 14.14662109 221.4021875 14.14662109 221.8125 15.31640625 C225.78025705 26.16247896 230.98867759 36.14292475 237 46 C234.12042688 47.43978656 231.63930367 47.13598346 228.42002869 47.14717102 C227.73611055 47.15084771 227.05219242 47.1545244 226.3475495 47.1583125 C224.04411079 47.16936965 221.74071717 47.17319681 219.43725586 47.17700195 C217.78968665 47.18326574 216.14211885 47.18991246 214.49455261 47.19691467 C209.06799305 47.21799096 203.64143314 47.22832947 198.21484375 47.23828125 C196.34364876 47.24232934 194.47245392 47.24644628 192.60125923 47.25063133 C183.79823132 47.26970128 174.99521183 47.28392103 166.19216722 47.2922433 C156.05827728 47.30198287 145.92460769 47.32820844 135.79079527 47.36874419 C127.94511712 47.3990392 120.09950156 47.41372532 112.25376612 47.41702431 C107.57560717 47.41936222 102.89768306 47.42815489 98.21958733 47.45348549 C93.80444172 47.47700222 89.38968153 47.48090614 84.97448921 47.47072411 C83.3674452 47.47023409 81.7603807 47.47639365 80.15339661 47.49028015 C66.18659193 47.60405866 51.92811041 46.02475585 39.5 39.125 C38.83967773 38.77477783 38.17935547 38.42455566 37.49902344 38.0637207 C35.64989035 37.06836632 33.82215352 36.04374232 32 35 C31.14921875 34.51660156 30.2984375 34.03320312 29.421875 33.53515625 C16.98017297 25.81503539 7.0962528 14.72580289 0 2 C0 1.34 0 0.68 0 0 Z " fill="#66BB6A" transform="translate(34,393)"/>
<path d="M0 0 C2.62801827 1.10508718 3.50222945 2.29188922 4.8671875 4.78515625 C5.02734375 7.625 5.02734375 7.625 4.9296875 10.72265625 C4.9936297 13.90967994 4.9936297 13.90967994 5.8671875 16.78515625 C8.88013709 19.29501593 12.21498464 20.44411301 15.8671875 21.78515625 C22.44378284 25.8207943 26.41431656 33.61959346 28.8671875 40.78515625 C29.42424597 45.01011917 29.21562143 48.73985446 27.8671875 52.78515625 C25.30247033 55.34987342 23.41884461 55.60152223 19.90234375 56.03515625 C17.05923245 55.68590649 15.87358761 54.82143891 13.8671875 52.78515625 C12.99609375 50.078125 12.99609375 50.078125 12.4296875 46.97265625 C11.21139751 41.49697244 9.97592665 38.59325595 5.8671875 34.78515625 C1.3882188 32.0694868 -3.03561525 32.13994141 -8.1328125 32.78515625 C-12.97044775 35.11438804 -15.76900913 37.966634 -18.1328125 42.78515625 C-19.034973 48.43126184 -18.37460835 52.97835551 -15.1328125 57.78515625 C-11.02186653 61.49503432 -8.57959209 62.82686465 -3.1328125 63.09765625 C6.0496621 63.88986975 14.21335832 67.31694892 20.8671875 73.78515625 C27.25888325 81.69665521 29.44925561 88.94729244 29.3203125 99.1015625 C28.34597198 107.02227895 24.12910551 113.90075626 18.8671875 119.78515625 C16.39453125 121.55078125 16.39453125 121.55078125 13.8046875 123.03515625 C12.51884766 123.78539062 12.51884766 123.78539062 11.20703125 124.55078125 C8.8671875 125.78515625 8.8671875 125.78515625 5.8671875 126.78515625 C5.82980469 127.52121094 5.79242188 128.25726563 5.75390625 129.015625 C5.03261577 139.72183857 5.03261577 139.72183857 1.8671875 142.78515625 C-0.8414638 143.69572413 -3.2836747 143.99194851 -6.1328125 143.78515625 C-9.39993076 142.10971099 -9.9606235 141.30172324 -11.1328125 137.78515625 C-11.201362 135.89044809 -11.21761622 133.99347285 -11.1953125 132.09765625 C-11.18628906 131.10378906 -11.17726562 130.10992187 -11.16796875 129.0859375 C-11.15636719 128.32667969 -11.14476562 127.56742187 -11.1328125 126.78515625 C-11.9371875 126.57890625 -12.7415625 126.37265625 -13.5703125 126.16015625 C-23.18737698 122.4483068 -28.56684764 116.83604131 -33.1640625 107.74609375 C-35.24137519 102.91826519 -36.16061259 97.99333554 -35.1328125 92.78515625 C-33.1328125 89.66015625 -33.1328125 89.66015625 -30.1328125 87.78515625 C-27.26143362 87.47790754 -24.80223033 87.66266047 -22.1328125 88.78515625 C-19.1814792 91.79898837 -18.57589884 94.64660207 -17.8203125 98.72265625 C-16.90660472 102.7079774 -16.27146145 105.33093139 -13.0703125 107.97265625 C-8.20595439 110.9740687 -4.81018589 111.43665811 0.8671875 110.78515625 C5.10007709 109.41811409 7.90134114 107.20372543 10.3046875 103.47265625 C12.78647349 98.4555975 12.37514649 94.36250259 10.6796875 89.09765625 C8.68794407 85.45757343 7.32731795 84.03145061 3.8671875 81.78515625 C1.129226 81.00354526 -1.62500898 80.64609345 -4.4453125 80.28515625 C-10.58522698 79.34120457 -15.95620249 78.43485252 -21.1328125 74.78515625 C-21.74253906 74.36492187 -22.35226563 73.9446875 -22.98046875 73.51171875 C-27.84469399 69.7731847 -30.57126536 65.30159671 -33.1328125 59.78515625 C-33.50019531 59.00785156 -33.86757812 58.23054688 -34.24609375 57.4296875 C-36.48156804 50.76265624 -36.22225303 42.40219317 -33.5078125 35.91015625 C-32.76009027 34.51077332 -31.9678471 33.13425903 -31.1328125 31.78515625 C-30.5140625 30.73908203 -30.5140625 30.73908203 -29.8828125 29.671875 C-25.84133147 23.57520901 -19.90907127 19.15327105 -12.828125 17.125 C-11.98894531 16.95677734 -11.98894531 16.95677734 -11.1328125 16.78515625 C-11.19082031 15.97691406 -11.24882812 15.16867188 -11.30859375 14.3359375 C-11.67398151 5.68146742 -11.67398151 5.68146742 -9.1328125 1.47265625 C-5.63238855 -0.49633222 -3.87175766 -0.53481477 0 0 Z " fill="#ECEDEC" transform="translate(187.1328125,224.21484375)"/>
<path d="M0 0 C36.08511612 -4.44294377 36.08511612 -4.44294377 47.322052 3.82684326 C54.40543436 9.78430213 60.23753442 16.97771634 65.76138306 24.36535645 C67.71128876 26.93871119 69.76926518 29.42041484 71.82421875 31.91015625 C72.54915527 32.79437256 73.2740918 33.67858887 74.02099609 34.58959961 C75.22438328 36.05530917 76.42782029 37.52097781 77.63134766 38.98657227 C92.65004168 57.32393766 105.50633359 76.75195839 116.75 97.625 C117.25321777 98.55723389 117.25321777 98.55723389 117.76660156 99.50830078 C120 103.74742112 120 103.74742112 120 106 C118.90042969 106.556875 117.80085938 107.11375 116.66796875 107.6875 C107.88526562 112.19866541 99.76051829 116.84857406 92 123 C90.23546261 120.35319391 89.02117983 117.95244785 87.75 115.0546875 C69.64193349 74.31153785 41.96488578 37.06610418 8 8 C6.49759983 6.71112588 4.99753482 5.41952394 3.5 4.125 C2.8296875 3.55007812 2.159375 2.97515625 1.46875 2.3828125 C0.9840625 1.92648438 0.499375 1.47015625 0 1 C0 0.67 0 0.34 0 0 Z " fill="#66BB6A" transform="translate(201,152)"/>
<path d="M0 0 C1.04465424 -0.00058411 2.08930847 -0.00116821 3.1656189 -0.00177002 C6.60172315 0.0010058 10.03694858 0.0320753 13.47290039 0.06347656 C15.86185736 0.0709407 18.25082047 0.07663282 20.63978577 0.08062744 C26.91497829 0.09586995 33.18979808 0.13514047 39.46484375 0.17944336 C45.87307697 0.22042554 52.28137065 0.23864479 58.68969727 0.25878906 C71.25430903 0.30163553 83.81866297 0.36909725 96.38305664 0.45410156 C96.42394969 1.86661574 96.45282769 3.27948028 96.47680664 4.69238281 C96.49420898 5.47911377 96.51161133 6.26584473 96.52954102 7.07641602 C96.22104761 12.08377813 94.08711964 15.8769004 90.44165039 19.25097656 C84.48450142 23.8587161 80.01962772 24.60759928 72.54052734 24.63110352 C71.63610397 24.63767471 70.7316806 24.64424591 69.79985046 24.65101624 C66.80284543 24.67074694 63.80589054 24.68241231 60.80883789 24.69238281 C59.27235124 24.6984961 59.27235124 24.6984961 57.70482445 24.70473289 C52.28157121 24.7255942 46.85834328 24.7398948 41.43505859 24.74926758 C35.84082769 24.76032277 30.24699556 24.79471245 24.65290546 24.83443928 C20.34538548 24.8606213 16.03796021 24.86896092 11.73036766 24.87254906 C9.66875711 24.8774121 7.60715071 24.889018 5.54561806 24.90758705 C2.65427978 24.9320084 -0.23603095 24.93100771 -3.12744141 24.92407227 C-4.39568253 24.94328735 -4.39568253 24.94328735 -5.68954468 24.96289062 C-12.21092278 24.90611568 -17.322319 23.24890659 -22.34159374 18.99109364 C-23.61694336 17.45410156 -23.61694336 17.45410156 -23.61694336 14.70410156 C-21.69044286 8.44297493 -18.54667963 4.53299754 -12.76669121 1.31497955 C-8.63397634 -0.33998816 -4.39251712 -0.06476492 0 0 Z " fill="#FFB64C" transform="translate(127.616943359375,111.5458984375)"/>
<path d="M0 0 C6.94410235 4.73734098 10.38044651 10.14133953 13 18 C13.77888472 28.11052279 12.80421735 34.93828746 6.25 42.75 C1.10958316 48.23059149 -4.10539599 51.56791484 -11.69921875 52.23828125 C-21.96968666 52.49336477 -28.72697032 49.92384721 -36.2734375 42.93359375 C-41.97630521 36.54689801 -43.38422577 29.20627794 -43.2734375 20.875 C-42.49506832 12.69100402 -37.78987552 6.55408873 -32 1 C-22.2735762 -6.11689546 -10.26695802 -5.77197143 0 0 Z " fill="#EEEDEB" transform="translate(419,380)"/>
<path d="M0 0 C6.94410235 4.73734098 10.38044651 10.14133953 13 18 C14.15137976 27.31305907 12.21148683 34.22888911 7 42 C2.18047394 47.7145809 -4.52075587 51.41393067 -11.92578125 52.3828125 C-21.9476684 52.76484123 -28.9707307 49.69805323 -36.2734375 42.93359375 C-41.97630521 36.54689801 -43.38422577 29.20627794 -43.2734375 20.875 C-42.49506832 12.69100402 -37.78987552 6.55408873 -32 1 C-22.2735762 -6.11689546 -10.26695802 -5.77197143 0 0 Z " fill="#EEEDEB" transform="translate(347,308)"/>
<path d="M0 0 C3.21142855 2.37366458 4.71584605 3.93442268 5.75 7.8125 C3.85932198 15.84788158 -5.45291694 22.62659043 -11.11303711 28.33764648 C-11.99853745 29.2345369 -12.88403778 30.13142731 -13.79637146 31.05549622 C-16.70271485 33.99798119 -19.61436158 36.93518241 -22.52734375 39.87109375 C-23.27378989 40.62345869 -23.27378989 40.62345869 -24.03531575 41.39102292 C-28.7356628 46.12771949 -33.43849167 50.86194233 -38.14635372 55.59117031 C-44.14396754 61.61642446 -50.12961088 67.65306396 -56.10000414 73.70529503 C-60.31475378 77.97583799 -64.54283723 82.23288804 -68.78095251 86.48024231 C-71.30625524 89.01179201 -73.82531802 91.54888981 -76.33009148 94.10076714 C-79.12006659 96.94257468 -81.9373756 99.75627728 -84.75756836 102.56811523 C-85.57807678 103.41221954 -86.39858521 104.25632385 -87.24395752 105.12600708 C-93.58906126 111.38049417 -93.58906126 111.38049417 -98.42530823 112.08558655 C-102 112 -102 112 -104.4375 111.0625 C-106.33240034 108.56123155 -107.11319459 106.28961264 -107.35148144 103.15615177 C-106.90360907 100.40869286 -105.94937742 99.34593742 -104.063797 97.31407166 C-103.42183191 96.61796721 -102.77986683 95.92186275 -102.11844826 95.20466423 C-98.38223178 91.31639233 -94.60944001 87.47075669 -90.79174805 83.66235352 C-89.89660995 82.7654631 -89.00147186 81.86857269 -88.07920837 80.94450378 C-85.64800044 78.50877816 -83.21369023 76.07617627 -80.77862906 73.64430356 C-78.22361996 71.09184288 -75.67107033 68.53692444 -73.11811829 65.98240662 C-68.83892237 61.7013982 -64.55763704 57.42248785 -60.27514648 53.14477539 C-55.32269303 48.19778369 -50.37388038 43.24717174 -45.42690247 38.29470497 C-41.17127896 34.03454895 -36.91371684 29.77633772 -32.65451652 25.51975769 C-30.11381628 22.98061678 -27.57379746 20.44080412 -25.03552818 17.89923286 C-22.21363238 15.07392147 -19.38767603 12.25269386 -16.5612793 9.43188477 C-15.71919922 8.58778046 -14.87711914 7.74367615 -14.00952148 6.87399292 C-13.2427861 6.11007736 -12.47605072 5.3461618 -11.68608093 4.55909729 C-11.01857661 3.89197 -10.35107229 3.2248427 -9.66334057 2.53749943 C-6.56193124 -0.32927071 -4.1489738 -0.48811457 0 0 Z " fill="#EEECEA" transform="translate(419,312)"/>
<path d="M0 0 C4.08998175 1.80720124 6.66247347 4.19069751 9 8 C9.62819266 13.0255413 9.03320735 15.95572354 6 20 C3.24705395 23.21177039 0.96958591 23.86947882 -3.25 24.4375 C-8.23409112 23.8560227 -10.67351517 21.62718402 -14 18 C-15.63125565 14.7374887 -15.68851113 11.5120384 -15 8 C-11.02622012 1.59304414 -7.59384259 -0.51483679 0 0 Z " fill="#FEB850" transform="translate(407,392)"/>
<path d="M0 0 C4.08998175 1.80720124 6.66247347 4.19069751 9 8 C9.62819266 13.0255413 9.03320735 15.95572354 6 20 C3.24705395 23.21177039 0.96958591 23.86947882 -3.25 24.4375 C-8.23409112 23.8560227 -10.67351517 21.62718402 -14 18 C-15.63125565 14.7374887 -15.68851113 11.5120384 -15 8 C-11.02622012 1.59304414 -7.59384259 -0.51483679 0 0 Z " fill="#FEB850" transform="translate(335,320)"/>
<path d="M0 0 C0.33 0 0.66 0 1 0 C0.73146007 8.4590077 -1.841093 13.80524035 -7.8125 19.828125 C-10.66604115 22.36187275 -13.41873442 24.59155761 -17 26 C-17.99 25.67 -18.98 25.34 -20 25 C-19.071875 24.154375 -18.14375 23.30875 -17.1875 22.4375 C-10.53700305 15.82788725 -5.18905216 7.78357824 0 0 Z " fill="#E1DFDB" transform="translate(431,405)"/>
</svg>
